<svg width="235" height="126" viewBox="0 0 235 126" fill="none" xmlns="http://www.w3.org/2000/svg">
<path d="M63.5273 113.77C60.2503 113.77 58.6103 112.253 58.6103 110.614C58.6103 108.61 61.0385 106.669 65.3477 106.669C67.9578 106.669 70.9316 107.519 74.0889 108.794C70.5679 111.889 67.109 113.771 63.5273 113.771V113.77ZM124.164 59.9918C127.441 59.9918 128.96 61.5697 128.96 64.1191C128.96 72.1313 113.36 89.6122 89.6282 94.893C100.917 79.4159 111.6 59.9918 124.166 59.9918H124.164ZM74.8165 108.186C71.356 106.79 68.079 105.879 65.2264 105.879C60.4306 105.879 57.8206 108.186 57.8206 110.614C57.8206 112.8 59.8244 114.56 63.8289 114.56C68.1988 114.56 72.2655 112.739 76.1503 109.705C87.5001 114.925 101.157 125 112.326 125C123.737 125 126.955 112.679 126.955 112.679L126.165 112.375C126.165 112.375 123.494 123.301 112.326 123.301C101.825 123.301 88.3504 114.135 77.0006 109.098C81.128 105.699 85.0734 100.965 88.8976 95.8661C112.934 90.8885 129.807 72.8619 129.807 64.06C129.807 61.1468 127.866 59.2051 123.676 59.2051C109.411 59.2051 97.2114 79.7206 85.4978 95.6236C83.6168 95.8661 81.7342 95.9874 79.9139 95.9874C63.5258 95.9874 63.3439 84.2723 63.3439 82.8763V82.8157C63.3439 75.1067 69.7782 68.9771 77.0006 68.9771C80.8248 68.9771 84.8915 70.6762 88.2898 74.8642L88.8354 74.3185C85.6191 70.0093 81.3083 68.1267 77.1204 68.1267C69.6554 68.1267 62.492 74.1972 62.492 83.1795C62.492 85.0605 63.1605 96.8362 80.0336 96.8362C81.6115 96.8362 83.1894 96.7149 84.8294 96.5331C81.4311 101.024 78.1526 105.091 74.8149 108.188L74.8165 108.186Z" fill="white"/>
<path d="M131.265 110.128C134.239 110.128 138.366 107.154 150.203 91.372L149.352 91.0689C143.647 98.6566 135.453 108.974 132.053 108.974C130.961 108.974 130.718 108.003 130.718 106.91C130.718 103.875 134.36 96.7119 147.47 77.5319H143.706C141.096 82.2064 138.001 86.8794 135.209 91.128C128.896 99.5039 121.067 109.094 116.757 109.094C115.239 109.094 114.45 108.304 114.45 106.908C114.45 101.506 123.858 87.7888 130.474 77.591H126.892C121.672 87.0597 111.658 100.05 111.658 105.755C111.658 109.518 114.936 110.246 116.209 110.246C119.244 110.246 123.737 107.151 130.595 98.5914C128.835 101.747 127.743 104.479 127.743 106.482C127.743 109.577 130.413 110.125 131.264 110.125L131.265 110.128Z" fill="white"/>
<path d="M151.477 109.459C148.807 109.459 147.653 107.881 147.653 105.453C147.653 96.8741 161.797 77.2287 168.898 77.2287C169.991 77.2287 171.387 77.7137 171.387 79.7782C171.387 83.187 165.439 88.9635 165.439 88.9635H169.324C172.055 85.494 173.087 82.7627 173.087 80.7498C173.087 77.7153 170.659 76.3193 168.231 76.3193C157.79 76.3193 144.923 93.8911 144.923 103.745C144.923 107.578 146.683 110.249 151.479 110.249C159.673 110.249 172.298 96.5725 175.94 91.4023L175.09 91.0992C173.815 93.0408 160.279 109.461 151.479 109.461L151.477 109.459Z" fill="white"/>
<path d="M176.304 109.399C174.786 109.399 173.754 107.699 173.754 105.696C173.754 92.4633 189.11 77.4106 194.756 77.4106C195.849 77.4106 197.427 78.1397 197.427 80.1419C197.427 81.6592 196.637 83.9661 194.574 87.425C192.146 91.128 189.841 94.6475 188.019 97.7441C184.376 103.328 179.703 109.399 176.304 109.399ZM185.348 103.146C184.863 104.421 184.558 105.635 184.558 106.607C184.558 109.702 186.987 110.249 187.835 110.249C190.87 110.249 194.876 107.154 206.773 91.372L205.923 91.0689C200.217 98.6566 191.841 109.095 188.502 109.095C187.409 109.095 187.106 108.124 187.106 107.031C187.106 103.997 190.809 96.8953 203.919 77.6531H200.58C199.729 79.1097 198.88 80.5057 198.03 81.9623C198.212 81.356 198.273 80.8089 198.273 80.3238C198.273 76.7422 194.812 76.3177 194.085 76.3177C184.677 76.3177 171.262 91.7358 171.262 102.964C171.262 107.274 173.265 110.247 176.301 110.247C179.214 110.247 182.432 107.031 185.345 103.146H185.348Z" fill="white"/>
<path d="M225.468 100.538C224.436 101.812 222.919 103.633 221.098 105.393C222.009 103.815 222.555 101.873 222.555 99.566C222.555 92.3436 215.332 87.6691 214.967 82.8748C214.967 79.7797 218.002 76.0161 221.28 76.0161C223.343 76.0161 224.072 76.9877 224.072 78.3231C224.072 80.9938 221.28 84.9999 221.28 84.9999L225.407 85.1211C226.136 83.3613 226.561 81.6607 226.561 80.2041C226.561 75.8342 223.1 75.287 221.585 75.287C218.732 75.287 216.001 77.3515 214.787 79.8994C212.358 82.6914 209.506 86.2731 205.924 91.0673L206.774 91.3705C209.021 88.3966 211.57 84.9362 214.18 81.9017C214.12 82.1442 214.12 82.4474 214.12 82.752C214.12 87.4872 218.916 92.7058 218.916 99.3826C218.916 107.94 212.968 110.429 208.659 110.429C204.895 110.429 201.8 107.152 201.8 103.267C201.8 100.536 203.56 97.5016 206.596 95.1947L206.17 94.649C204.167 96.2269 201.071 99.0189 201.071 103.572C201.071 106.728 203.438 111.22 209.691 111.22C216.428 111.22 221.041 107.154 225.229 102.297C227.414 99.7479 230.146 96.2284 233.786 91.372L232.936 91.0688C230.69 94.0427 228.08 97.5031 225.471 100.538H225.468Z" fill="white"/>
<path d="M63.5273 113.77C60.2503 113.77 58.6103 112.253 58.6103 110.614C58.6103 108.61 61.0385 106.669 65.3477 106.669C67.9578 106.669 70.9316 107.519 74.0889 108.794C70.5679 111.889 67.109 113.771 63.5273 113.771V113.77ZM124.164 59.9918C127.441 59.9918 128.96 61.5697 128.96 64.1191C128.96 72.1313 113.36 89.6122 89.6282 94.893C100.917 79.4159 111.6 59.9918 124.166 59.9918H124.164ZM74.8165 108.186C71.356 106.79 68.079 105.879 65.2264 105.879C60.4306 105.879 57.8206 108.186 57.8206 110.614C57.8206 112.8 59.8244 114.56 63.8289 114.56C68.1988 114.56 72.2655 112.739 76.1503 109.705C87.5001 114.925 101.157 125 112.326 125C123.737 125 126.955 112.679 126.955 112.679L126.165 112.375C126.165 112.375 123.494 123.301 112.326 123.301C101.825 123.301 88.3504 114.135 77.0006 109.098C81.128 105.699 85.0734 100.965 88.8976 95.8661C112.934 90.8885 129.807 72.8619 129.807 64.06C129.807 61.1468 127.866 59.2051 123.676 59.2051C109.411 59.2051 97.2114 79.7206 85.4978 95.6236C83.6168 95.8661 81.7342 95.9874 79.9139 95.9874C63.5258 95.9874 63.3439 84.2723 63.3439 82.8763V82.8157C63.3439 75.1067 69.7782 68.9771 77.0006 68.9771C80.8248 68.9771 84.8915 70.6762 88.2898 74.8642L88.8354 74.3185C85.6191 70.0093 81.3083 68.1267 77.1204 68.1267C69.6554 68.1267 62.492 74.1972 62.492 83.1795C62.492 85.0605 63.1605 96.8362 80.0336 96.8362C81.6115 96.8362 83.1894 96.7149 84.8294 96.5331C81.4311 101.024 78.1526 105.091 74.8149 108.188L74.8165 108.186Z" stroke="white" stroke-width="0.287989" stroke-miterlimit="22.9256"/>
<path d="M131.265 110.128C134.239 110.128 138.366 107.154 150.203 91.372L149.352 91.0689C143.647 98.6566 135.453 108.974 132.053 108.974C130.961 108.974 130.718 108.003 130.718 106.91C130.718 103.875 134.36 96.7119 147.47 77.5319H143.706C141.096 82.2064 138.001 86.8794 135.209 91.128C128.896 99.5039 121.067 109.094 116.757 109.094C115.239 109.094 114.45 108.304 114.45 106.908C114.45 101.506 123.858 87.7888 130.474 77.591H126.892C121.672 87.0597 111.658 100.05 111.658 105.755C111.658 109.518 114.936 110.246 116.209 110.246C119.244 110.246 123.737 107.151 130.595 98.5914C128.835 101.747 127.743 104.479 127.743 106.482C127.743 109.577 130.413 110.125 131.264 110.125L131.265 110.128Z" stroke="white" stroke-width="0.287989" stroke-miterlimit="22.9256"/>
<path d="M151.477 109.459C148.807 109.459 147.653 107.881 147.653 105.453C147.653 96.8741 161.797 77.2287 168.898 77.2287C169.991 77.2287 171.387 77.7137 171.387 79.7782C171.387 83.187 165.439 88.9635 165.439 88.9635H169.324C172.055 85.494 173.087 82.7626 173.087 80.7498C173.087 77.7153 170.659 76.3193 168.231 76.3193C157.79 76.3193 144.923 93.8911 144.923 103.745C144.923 107.578 146.683 110.249 151.479 110.249C159.673 110.249 172.298 96.5725 175.94 91.4023L175.09 91.0992C173.815 93.0408 160.279 109.461 151.479 109.461L151.477 109.459Z" stroke="white" stroke-width="0.287989" stroke-miterlimit="22.9256"/>
<path d="M176.304 109.399C174.786 109.399 173.754 107.699 173.754 105.696C173.754 92.4633 189.11 77.4106 194.756 77.4106C195.849 77.4106 197.427 78.1397 197.427 80.1419C197.427 81.6592 196.637 83.9661 194.574 87.425C192.146 91.128 189.841 94.6475 188.019 97.7441C184.376 103.328 179.703 109.399 176.304 109.399ZM185.348 103.146C184.863 104.421 184.558 105.635 184.558 106.607C184.558 109.702 186.987 110.249 187.835 110.249C190.87 110.249 194.876 107.154 206.773 91.372L205.923 91.0689C200.217 98.6566 191.841 109.095 188.502 109.095C187.409 109.095 187.106 108.124 187.106 107.031C187.106 103.997 190.809 96.8953 203.919 77.6531H200.58C199.729 79.1097 198.88 80.5057 198.03 81.9623C198.212 81.356 198.273 80.8089 198.273 80.3238C198.273 76.7422 194.812 76.3177 194.085 76.3177C184.677 76.3177 171.262 91.7358 171.262 102.964C171.262 107.274 173.265 110.247 176.301 110.247C179.214 110.247 182.432 107.031 185.345 103.146H185.348Z" stroke="white" stroke-width="0.287989" stroke-miterlimit="22.9256"/>
<path d="M225.468 100.538C224.436 101.812 222.919 103.633 221.098 105.393C222.009 103.815 222.555 101.873 222.555 99.566C222.555 92.3436 215.332 87.6691 214.967 82.8748C214.967 79.7797 218.002 76.0161 221.28 76.0161C223.343 76.0161 224.072 76.9877 224.072 78.3231C224.072 80.9938 221.28 84.9999 221.28 84.9999L225.407 85.1211C226.136 83.3613 226.561 81.6607 226.561 80.2041C226.561 75.8342 223.1 75.287 221.585 75.287C218.732 75.287 216.001 77.3515 214.787 79.8994C212.358 82.6914 209.506 86.2731 205.924 91.0673L206.774 91.3705C209.021 88.3966 211.57 84.9362 214.18 81.9017C214.12 82.1442 214.12 82.4474 214.12 82.752C214.12 87.4872 218.916 92.7058 218.916 99.3826C218.916 107.94 212.968 110.429 208.659 110.429C204.895 110.429 201.8 107.152 201.8 103.267C201.8 100.536 203.56 97.5016 206.596 95.1947L206.17 94.649C204.167 96.2269 201.071 99.0189 201.071 103.572C201.071 106.728 203.438 111.22 209.691 111.22C216.428 111.22 221.041 107.154 225.229 102.297C227.414 99.7479 230.146 96.2284 233.786 91.372L232.936 91.0688C230.69 94.0427 228.08 97.5031 225.471 100.538H225.468Z" stroke="white" stroke-width="0.287989" stroke-miterlimit="22.9256"/>
<path d="M10.9571 27.6446C13.1428 34.9292 19.8802 40.3313 28.4381 40.3313C29.7128 40.3313 31.8363 40.2706 34.5692 39.4203L34.3267 38.6306C31.7166 39.4203 29.593 39.5416 28.4396 39.5416C18.1811 39.5416 13.3262 32.5616 11.6862 27.0383C15.571 23.9432 20.3062 22 25.2823 22C34.6298 22 35.662 29.2225 35.662 30.8003H36.3911C36.3911 27.7658 34.3267 21.1497 25.1019 21.1497C20.1849 21.1497 15.3906 22.7882 11.3846 25.6408C11.0814 24.4267 11.0208 23.5157 11.0208 22.6669C11.0208 11.7415 21.7643 1.42244 38.1524 1.42244C47.2574 1.42244 57.3931 4.94348 67.8334 7.30954C49.3809 19.6309 40.094 62.3624 16.5441 62.3624C5.43683 62.3624 1.97642 52.6511 1.97642 46.2775C1.97642 39.3582 5.49746 32.3176 10.9602 27.6431L10.9571 27.6446ZM0.213623 46.279C0.213623 55.0793 5.85821 63.1521 16.6017 63.1521C43.4908 63.1521 53.5658 19.6931 69.7114 7.67483C74.2025 8.64641 78.7558 9.2527 83.2469 9.2527C86.0389 9.2527 95.3864 9.19208 98.7255 1.5437L97.8752 1.48307C97.0249 2.87906 94.4148 7.49143 83.6122 7.49143C80.0305 7.49143 76.0851 7.00639 71.9577 6.27732C73.8994 5.24511 75.9032 4.69945 78.0282 4.69945V3.97038C75.1756 3.97038 72.5655 4.69945 70.1373 5.91203C59.5757 3.90975 47.9834 0.631226 38.3327 0.631226C20.9124 0.631226 10.2296 11.5566 10.2296 22.6639C10.2296 24.0599 10.4115 25.3346 10.5934 26.1849C4.46222 30.8595 0.213623 38.2032 0.213623 46.276V46.279Z" fill="white"/>
<path d="M55.2059 59.2082C53.6886 59.2082 52.6564 57.509 52.6564 55.5053C52.6564 42.2729 68.0123 27.2202 73.6584 27.2202C74.7512 27.2202 76.3291 27.9493 76.3291 29.9515C76.3291 31.4688 75.5394 33.7757 73.4765 37.2346C71.0483 40.9376 68.7429 44.4571 66.921 47.5537C63.2787 53.1377 58.6057 59.2082 55.2059 59.2082ZM64.2502 52.9558C63.7652 54.2305 63.4605 55.4446 63.4605 56.4162C63.4605 59.5113 65.8887 60.0585 66.7376 60.0585C69.772 60.0585 73.7781 56.9634 85.6751 41.1816L84.8248 40.8784C79.1196 48.4662 70.7436 58.905 67.4045 58.905C66.3116 58.905 66.0085 57.9335 66.0085 56.8406C66.0085 53.8061 69.7114 46.7049 82.821 27.4627H79.4818C78.6315 28.9193 77.7827 30.3153 76.9324 31.7719C77.1143 31.1656 77.1749 30.6185 77.1749 30.1334C77.1749 26.5518 73.7145 26.1273 72.9869 26.1273C63.5788 26.1273 50.1646 41.5454 50.1646 52.7739C50.1646 57.0831 52.1668 60.057 55.2028 60.057C58.1161 60.057 61.334 56.8406 64.2472 52.9558H64.2502Z" fill="white"/>
<path d="M101.396 40.8769C95.7517 48.3419 86.8286 59.146 82.9453 59.146C75.3575 59.146 92.8991 33.5317 96.9052 27.5233H93.0204C91.6244 30.0122 90.9574 31.1656 87.012 37.4165C82.339 44.8224 74.8119 56.1115 80.5171 59.5704C81.0628 59.9342 81.6706 60.0555 82.3981 60.0555C86.1617 60.0555 92.0488 54.714 102.247 41.1786L101.396 40.8754V40.8769ZM99.6365 19.0868C100.851 19.0868 102.307 17.9939 102.976 16.5979C103.643 15.2626 103.218 14.1697 102.065 14.1697C100.911 14.1697 99.394 15.2626 98.7256 16.5979C98.0586 17.9939 98.4831 19.0868 99.6365 19.0868Z" fill="white"/>
<path d="M113.839 59.146C112.382 59.146 111.776 58.6004 111.776 57.5681C111.776 52.4692 127.982 36.263 127.982 29.2225C127.982 26.7943 126.162 25.8833 124.522 25.8833C120.879 25.8833 114.932 28.6753 107.647 36.3843C111.956 29.4043 111.653 29.95 113.292 27.4612L109.589 27.4005C109.589 27.4612 109.589 27.4612 89.6797 60.0555H93.1401L103.52 43.1202C108.74 35.3506 118.391 27.1565 123.186 27.1565C124.764 27.1565 125.372 27.8234 125.372 28.795C125.372 33.8939 109.651 47.8538 109.651 55.8054C109.651 57.991 111.108 60.0539 113.475 60.0539C116.754 60.0539 122.641 56.4116 133.506 41.177L132.655 40.8739C121.851 55.6841 116.51 59.143 113.839 59.143V59.146Z" fill="white"/>
<path d="M133.869 59.2082C132.352 59.2082 131.32 57.509 131.32 55.5053C131.32 42.2729 146.676 27.2202 152.322 27.2202C153.415 27.2202 154.993 27.9493 154.993 29.9515C154.993 31.4688 154.203 33.7757 152.14 37.2346C149.712 40.9376 147.406 44.4571 145.584 47.5537C141.942 53.1377 137.269 59.2082 133.869 59.2082ZM142.914 52.9558C142.429 54.2305 142.124 55.4446 142.124 56.4162C142.124 59.5113 144.552 60.0585 145.401 60.0585C148.436 60.0585 152.442 56.9634 164.339 41.1816L163.488 40.8784C157.783 48.4662 149.407 58.905 146.068 58.905C144.975 58.905 144.672 57.9335 144.672 56.8406C144.672 53.8061 148.375 46.7049 161.484 27.4627H158.145C157.295 28.9193 156.446 30.3153 155.596 31.7719C155.778 31.1656 155.838 30.6185 155.838 30.1334C155.838 26.5518 152.378 26.1273 151.65 26.1273C142.242 26.1273 128.828 41.5454 128.828 52.7739C128.828 57.0831 130.83 60.057 133.866 60.057C136.78 60.057 139.997 56.8406 142.911 52.9558H142.914Z" fill="white"/>
<path d="M172.229 26.2486C172.229 23.6991 170.591 23.2141 170.044 23.2141C170.529 24.6707 170.773 25.8242 170.347 27.8265C169.741 27.7659 169.133 27.6446 168.587 27.5233L168.041 28.1918C168.708 28.3737 169.437 28.5555 170.104 28.6162C169.375 31.2263 167.555 34.9898 163.488 40.8769L164.338 41.1801C168.526 35.4749 170.53 32.986 171.805 28.8587C172.898 28.98 174.112 29.0406 175.324 29.0406C177.631 29.0406 179.937 28.8587 181.698 28.6162C171.561 39.4809 164.096 49.1316 164.096 55.2627C164.096 57.9941 165.734 60.0585 167.799 60.0585C171.866 60.0585 178.482 53.5636 187.769 41.1816L186.918 40.8784C181.152 48.5268 172.169 59.1475 168.284 59.1475C166.827 59.1475 166.524 58.2366 166.524 57.3878C166.524 51.5007 183.641 28.4964 183.641 27.8886C183.641 27.7067 183.52 27.5855 183.338 27.5855C183.278 27.5855 179.635 28.1311 175.447 28.1311C174.354 28.1311 173.201 28.1311 172.049 28.0099C172.17 27.3414 172.231 26.7352 172.231 26.2501L172.229 26.2486Z" fill="white"/>
<path d="M188.133 59.2082C186.615 59.2082 185.583 57.509 185.583 55.5053C185.583 42.2729 200.939 27.2202 206.585 27.2202C207.678 27.2202 209.256 27.9493 209.256 29.9515C209.256 31.4688 208.466 33.7757 206.403 37.2346C203.975 40.9376 201.67 44.4571 199.848 47.5537C196.205 53.1377 191.532 59.2082 188.133 59.2082ZM197.177 52.9558C196.692 54.2305 196.387 55.4446 196.387 56.4162C196.387 59.5113 198.815 60.0585 199.664 60.0585C202.699 60.0585 206.705 56.9634 218.602 41.1816L217.751 40.8784C212.046 48.4662 203.67 58.905 200.331 58.905C199.238 58.905 198.935 57.9335 198.935 56.8406C198.935 53.8061 202.638 46.7049 215.748 27.4627H212.408C211.558 28.9193 210.709 30.3153 209.859 31.7719C210.041 31.1656 210.102 30.6185 210.102 30.1334C210.102 26.5518 206.641 26.1273 205.914 26.1273C196.505 26.1273 183.091 41.5454 183.091 52.7739C183.091 57.0831 185.093 60.057 188.129 60.057C191.043 60.057 194.261 56.8406 197.174 52.9558H197.177Z" fill="white"/>
<path d="M10.9571 27.6446C13.1428 34.9292 19.8802 40.3313 28.4381 40.3313C29.7128 40.3313 31.8363 40.2706 34.5692 39.4203L34.3267 38.6306C31.7166 39.4203 29.593 39.5416 28.4396 39.5416C18.1811 39.5416 13.3262 32.5616 11.6862 27.0383C15.571 23.9432 20.3062 22 25.2823 22C34.6298 22 35.662 29.2225 35.662 30.8003H36.3911C36.3911 27.7658 34.3267 21.1497 25.1019 21.1497C20.1849 21.1497 15.3906 22.7882 11.3846 25.6408C11.0814 24.4267 11.0208 23.5157 11.0208 22.6669C11.0208 11.7415 21.7643 1.42244 38.1524 1.42244C47.2574 1.42244 57.3931 4.94348 67.8334 7.30954C49.3809 19.6309 40.094 62.3624 16.5441 62.3624C5.43683 62.3624 1.97642 52.6511 1.97642 46.2775C1.97642 39.3582 5.49746 32.3176 10.9602 27.6431L10.9571 27.6446ZM0.213623 46.279C0.213623 55.0793 5.85821 63.1521 16.6017 63.1521C43.4908 63.1521 53.5658 19.6931 69.7114 7.67483C74.2025 8.64641 78.7558 9.2527 83.2469 9.2527C86.0389 9.2527 95.3864 9.19208 98.7255 1.5437L97.8752 1.48307C97.0249 2.87906 94.4148 7.49142 83.6122 7.49142C80.0305 7.49142 76.0851 7.00639 71.9577 6.27732C73.8994 5.24511 75.9032 4.69945 78.0282 4.69945V3.97038C75.1756 3.97038 72.5655 4.69945 70.1373 5.91203C59.5757 3.90975 47.9834 0.631226 38.3327 0.631226C20.9124 0.631226 10.2296 11.5566 10.2296 22.6639C10.2296 24.0599 10.4115 25.3346 10.5934 26.1849C4.46222 30.8595 0.213623 38.2032 0.213623 46.276V46.279Z" stroke="white" stroke-width="0.287989" stroke-miterlimit="22.9256"/>
<path d="M55.2059 59.2082C53.6886 59.2082 52.6564 57.509 52.6564 55.5053C52.6564 42.2729 68.0123 27.2202 73.6584 27.2202C74.7512 27.2202 76.3291 27.9493 76.3291 29.9515C76.3291 31.4688 75.5394 33.7757 73.4765 37.2346C71.0483 40.9376 68.7429 44.4571 66.921 47.5537C63.2787 53.1377 58.6057 59.2082 55.2059 59.2082ZM64.2502 52.9558C63.7652 54.2305 63.4605 55.4446 63.4605 56.4162C63.4605 59.5113 65.8887 60.0585 66.7376 60.0585C69.772 60.0585 73.7781 56.9634 85.6751 41.1816L84.8248 40.8784C79.1196 48.4662 70.7436 58.905 67.4045 58.905C66.3116 58.905 66.0085 57.9335 66.0085 56.8406C66.0085 53.8061 69.7114 46.7049 82.821 27.4627H79.4818C78.6315 28.9193 77.7827 30.3153 76.9324 31.7719C77.1143 31.1656 77.1749 30.6185 77.1749 30.1334C77.1749 26.5518 73.7145 26.1273 72.9869 26.1273C63.5788 26.1273 50.1646 41.5454 50.1646 52.7739C50.1646 57.0831 52.1668 60.057 55.2028 60.057C58.1161 60.057 61.334 56.8406 64.2472 52.9558H64.2502Z" stroke="white" stroke-width="0.287989" stroke-miterlimit="22.9256"/>
<path d="M101.396 40.8769C95.7517 48.3419 86.8286 59.146 82.9453 59.146C75.3575 59.146 92.8991 33.5317 96.9052 27.5233H93.0204C91.6244 30.0122 90.9574 31.1656 87.012 37.4165C82.339 44.8224 74.8119 56.1115 80.5171 59.5704C81.0628 59.9342 81.6706 60.0555 82.3981 60.0555C86.1617 60.0555 92.0488 54.714 102.247 41.1786L101.396 40.8754V40.8769ZM99.6365 19.0868C100.851 19.0868 102.307 17.9939 102.976 16.5979C103.643 15.2626 103.218 14.1697 102.065 14.1697C100.911 14.1697 99.394 15.2626 98.7256 16.5979C98.0586 17.9939 98.4831 19.0868 99.6365 19.0868Z" stroke="white" stroke-width="0.287989" stroke-miterlimit="22.9256"/>
<path d="M113.839 59.146C112.382 59.146 111.776 58.6004 111.776 57.5681C111.776 52.4692 127.982 36.263 127.982 29.2225C127.982 26.7943 126.162 25.8833 124.522 25.8833C120.879 25.8833 114.932 28.6753 107.647 36.3843C111.956 29.4043 111.653 29.95 113.292 27.4612L109.589 27.4005C109.589 27.4612 109.589 27.4612 89.6797 60.0555H93.1401L103.52 43.1202C108.74 35.3506 118.391 27.1565 123.186 27.1565C124.764 27.1565 125.372 27.8234 125.372 28.795C125.372 33.8939 109.651 47.8538 109.651 55.8054C109.651 57.991 111.108 60.0539 113.475 60.0539C116.754 60.0539 122.641 56.4116 133.506 41.177L132.655 40.8739C121.851 55.6841 116.51 59.143 113.839 59.143V59.146Z" stroke="white" stroke-width="0.287989" stroke-miterlimit="22.9256"/>
<path d="M133.869 59.2082C132.352 59.2082 131.32 57.509 131.32 55.5053C131.32 42.2729 146.676 27.2202 152.322 27.2202C153.415 27.2202 154.993 27.9493 154.993 29.9515C154.993 31.4688 154.203 33.7757 152.14 37.2346C149.712 40.9376 147.406 44.4571 145.584 47.5537C141.942 53.1377 137.269 59.2082 133.869 59.2082ZM142.914 52.9558C142.429 54.2305 142.124 55.4446 142.124 56.4162C142.124 59.5113 144.552 60.0585 145.401 60.0585C148.436 60.0585 152.442 56.9634 164.339 41.1816L163.488 40.8784C157.783 48.4662 149.407 58.905 146.068 58.905C144.975 58.905 144.672 57.9335 144.672 56.8406C144.672 53.8061 148.375 46.7049 161.484 27.4627H158.145C157.295 28.9193 156.446 30.3153 155.596 31.7719C155.778 31.1656 155.838 30.6185 155.838 30.1334C155.838 26.5518 152.378 26.1273 151.65 26.1273C142.242 26.1273 128.828 41.5454 128.828 52.7739C128.828 57.0831 130.83 60.057 133.866 60.057C136.78 60.057 139.997 56.8406 142.911 52.9558H142.914Z" stroke="white" stroke-width="0.287989" stroke-miterlimit="22.9256"/>
<path d="M172.229 26.2486C172.229 23.6991 170.591 23.2141 170.044 23.2141C170.529 24.6707 170.773 25.8242 170.347 27.8265C169.741 27.7659 169.133 27.6446 168.587 27.5233L168.041 28.1918C168.708 28.3737 169.437 28.5555 170.104 28.6162C169.375 31.2263 167.555 34.9898 163.488 40.8769L164.338 41.1801C168.526 35.4749 170.53 32.986 171.805 28.8587C172.898 28.98 174.112 29.0406 175.324 29.0406C177.631 29.0406 179.937 28.8587 181.698 28.6162C171.561 39.4809 164.096 49.1316 164.096 55.2627C164.096 57.9941 165.734 60.0585 167.799 60.0585C171.866 60.0585 178.482 53.5636 187.769 41.1816L186.918 40.8784C181.152 48.5268 172.169 59.1476 168.284 59.1476C166.827 59.1476 166.524 58.2366 166.524 57.3878C166.524 51.5007 183.641 28.4964 183.641 27.8886C183.641 27.7067 183.52 27.5855 183.338 27.5855C183.278 27.5855 179.635 28.1311 175.447 28.1311C174.354 28.1311 173.201 28.1311 172.049 28.0099C172.17 27.3414 172.231 26.7352 172.231 26.2501L172.229 26.2486Z" stroke="white" stroke-width="0.287989" stroke-miterlimit="22.9256"/>
<path d="M188.133 59.2082C186.615 59.2082 185.583 57.509 185.583 55.5053C185.583 42.2729 200.939 27.2202 206.585 27.2202C207.678 27.2202 209.256 27.9493 209.256 29.9515C209.256 31.4688 208.466 33.7757 206.403 37.2346C203.975 40.9376 201.67 44.4571 199.848 47.5537C196.205 53.1377 191.532 59.2082 188.133 59.2082ZM197.177 52.9558C196.692 54.2305 196.387 55.4446 196.387 56.4162C196.387 59.5113 198.815 60.0585 199.664 60.0585C202.699 60.0585 206.705 56.9634 218.602 41.1816L217.751 40.8784C212.046 48.4662 203.67 58.905 200.331 58.905C199.238 58.905 198.935 57.9335 198.935 56.8406C198.935 53.8061 202.638 46.7049 215.748 27.4627H212.408C211.558 28.9193 210.709 30.3153 209.859 31.7719C210.041 31.1656 210.102 30.6185 210.102 30.1334C210.102 26.5518 206.641 26.1273 205.914 26.1273C196.505 26.1273 183.091 41.5454 183.091 52.7739C183.091 57.0831 185.093 60.057 188.129 60.057C191.043 60.057 194.261 56.8406 197.174 52.9558H197.177Z" stroke="white" stroke-width="0.287989" stroke-miterlimit="22.9256"/>
<path d="M46.7587 90.89C46.0554 90.367 45.4233 89.8608 44.864 89.3742C44.0152 89.9517 43.0633 90.3943 42.0084 90.7005C40.9534 91.0067 39.8379 91.1598 38.6647 91.1598C36.3547 91.1598 34.5404 90.7051 33.2232 89.7926C31.906 88.8816 31.2467 87.6312 31.2467 86.0427C31.2467 84.7437 31.6438 83.6251 32.4381 82.6853C33.2323 81.7471 34.4691 80.9165 36.1471 80.195C35.4256 79.328 34.9011 78.5792 34.5768 77.9471C34.2524 77.3151 34.0902 76.6482 34.0902 75.9433C34.0902 74.6444 34.5374 73.6061 35.4301 72.83C36.3229 72.054 37.5461 71.666 39.0982 71.666C40.5594 71.666 41.728 71.9767 42.6041 72.5996C43.4802 73.2226 43.9167 74.0578 43.9167 75.1036C43.9167 76.1859 43.5378 77.0892 42.7799 77.8107C42.022 78.5322 40.8307 79.281 39.2058 80.057C41.246 82.5125 43.3028 84.7134 45.3779 86.6626C45.919 85.688 46.1903 84.6406 46.1903 83.522C46.1903 82.6732 46.0918 81.9517 45.8932 81.356H48.5457C48.6003 81.8426 48.6276 82.223 48.6276 82.4928C48.6276 83.4856 48.4563 84.4375 48.1138 85.3485C47.7712 86.2594 47.2831 87.0764 46.6526 87.7979C48.0971 89.0969 49.4234 90.126 50.6314 90.8839H46.7602L46.7587 90.89ZM38.8542 72.8058C38.1857 72.8058 37.6628 73.0544 37.2839 73.55C36.9049 74.0457 36.7155 74.7186 36.7155 75.5674C36.7155 76.1268 36.8322 76.6633 37.0671 77.1787C37.302 77.6925 37.6992 78.2927 38.2585 78.9794C39.0527 78.4564 39.6711 77.8698 40.1122 77.2196C40.5548 76.5693 40.7761 75.9297 40.7761 75.2976C40.7761 74.5216 40.6094 73.9123 40.2759 73.4697C39.9425 73.0271 39.468 72.8058 38.8542 72.8058ZM38.9891 89.9154C40.9019 89.9154 42.4995 89.4288 43.7803 88.4542C41.6143 86.4868 39.368 84.104 37.0398 81.3075C36.282 81.8486 35.7045 82.508 35.3073 83.284C34.9102 84.0601 34.7117 84.9089 34.7117 85.829C34.7117 87.1294 35.0906 88.1344 35.8485 88.8483C36.6063 89.5607 37.6537 89.9169 38.9891 89.9169V89.9154Z" fill="white"/>
<path d="M46.7587 90.89C46.0554 90.367 45.4233 89.8608 44.864 89.3742C44.0152 89.9517 43.0633 90.3943 42.0084 90.7005C40.9534 91.0067 39.8379 91.1598 38.6647 91.1598C36.3547 91.1598 34.5404 90.7051 33.2232 89.7926C31.906 88.8816 31.2467 87.6312 31.2467 86.0427C31.2467 84.7437 31.6438 83.6251 32.4381 82.6853C33.2323 81.7471 34.4691 80.9165 36.1471 80.195C35.4256 79.328 34.9011 78.5792 34.5768 77.9471C34.2524 77.3151 34.0902 76.6482 34.0902 75.9433C34.0902 74.6444 34.5374 73.6061 35.4301 72.83C36.3229 72.054 37.5461 71.666 39.0982 71.666C40.5594 71.666 41.728 71.9767 42.6041 72.5996C43.4802 73.2226 43.9167 74.0578 43.9167 75.1036C43.9167 76.1859 43.5378 77.0892 42.7799 77.8107C42.022 78.5322 40.8307 79.281 39.2058 80.057C41.246 82.5125 43.3028 84.7134 45.3779 86.6626C45.919 85.688 46.1903 84.6406 46.1903 83.522C46.1903 82.6732 46.0918 81.9517 45.8932 81.356H48.5457C48.6003 81.8426 48.6276 82.223 48.6276 82.4928C48.6276 83.4856 48.4563 84.4375 48.1138 85.3485C47.7712 86.2594 47.2831 87.0764 46.6526 87.7979C48.0971 89.0969 49.4234 90.126 50.6314 90.8839H46.7602L46.7587 90.89ZM38.8542 72.8058C38.1857 72.8058 37.6628 73.0544 37.2839 73.55C36.9049 74.0457 36.7155 74.7186 36.7155 75.5674C36.7155 76.1268 36.8322 76.6633 37.0671 77.1787C37.302 77.6925 37.6992 78.2927 38.2585 78.9794C39.0527 78.4564 39.6711 77.8698 40.1122 77.2196C40.5548 76.5693 40.7761 75.9297 40.7761 75.2976C40.7761 74.5216 40.6094 73.9123 40.2759 73.4697C39.9425 73.0271 39.468 72.8058 38.8542 72.8058ZM38.9891 89.9154C40.9019 89.9154 42.4995 89.4288 43.7803 88.4542C41.6143 86.4868 39.368 84.104 37.0398 81.3075C36.282 81.8486 35.7045 82.508 35.3073 83.284C34.9102 84.0601 34.7117 84.9089 34.7117 85.829C34.7117 87.1294 35.0906 88.1344 35.8485 88.8483C36.6063 89.5607 37.6537 89.9169 38.9891 89.9169V89.9154Z" stroke="white" stroke-width="0.287989" stroke-miterlimit="22.9256"/>
</svg>
