<svg width="107" height="64" viewBox="0 0 107 64" fill="none" xmlns="http://www.w3.org/2000/svg">
<path d="M53.3214 42.7778C52.8357 42.4222 52.2786 41.963 51.65 41.4C50.9786 41.9037 50.2143 42.2963 49.3571 42.5778C48.5 42.8593 47.6 43 46.6571 43C44.8857 43 43.5 42.6296 42.5 41.8889C41.5 41.1481 41 40.1259 41 38.8222C41 37.7556 41.3071 36.8296 41.9214 36.0444C42.55 35.2593 43.5143 34.5778 44.8143 34C44.2714 33.3185 43.8714 32.7185 43.6143 32.2C43.3571 31.6667 43.2286 31.0963 43.2286 30.4889C43.2286 29.4222 43.5643 28.5778 44.2357 27.9556C44.9071 27.3185 45.8286 27 47 27C48.1143 27 49 27.2519 49.6571 27.7556C50.3143 28.2444 50.6429 28.9185 50.6429 29.7778C50.6429 30.7111 50.3286 31.4815 49.7 32.0889C49.0714 32.6815 48.1357 33.2815 46.8929 33.8889C48.5214 35.9333 50.2143 37.7926 51.9714 39.4667C52.4571 38.6667 52.7 37.7556 52.7 36.7333C52.7 36.1111 52.6214 35.5333 52.4643 35H54.2857C54.3286 35.3556 54.35 35.6519 54.35 35.8889C54.35 36.7185 54.2143 37.5037 53.9429 38.2444C53.6857 38.9852 53.3143 39.6518 52.8286 40.2444C53.9429 41.2667 55 42.1111 56 42.7778H53.3214ZM46.8286 27.8444C46.2429 27.8444 45.7786 28.0519 45.4357 28.4667C45.1071 28.8815 44.9429 29.4519 44.9429 30.1778C44.9429 30.6519 45.0429 31.1185 45.2429 31.5778C45.4571 32.0222 45.8 32.5555 46.2714 33.1778C46.9857 32.7481 47.5429 32.2519 47.9429 31.6889C48.3571 31.1111 48.5643 30.5259 48.5643 29.9333C48.5643 29.2815 48.4071 28.7704 48.0929 28.4C47.7929 28.0296 47.3714 27.8444 46.8286 27.8444ZM46.8286 42.0667C48.4571 42.0667 49.8143 41.6222 50.9 40.7333C49.0143 38.9852 47.1786 36.9926 45.3929 34.7556C43.9643 35.6741 43.25 36.9704 43.25 38.6444C43.25 39.7259 43.5643 40.5704 44.1929 41.1778C44.8357 41.7704 45.7143 42.0667 46.8286 42.0667Z" fill="#607763"/>
<path d="M59.9878 55.1388C62.4908 55.1388 64.909 53.8237 67.3695 51.6601C65.1635 50.7692 63.0847 50.1752 61.2605 50.1752C58.2485 50.1752 56.5515 51.5328 56.5515 52.9328C56.5515 54.0782 57.6969 55.1388 59.9878 55.1388ZM102.369 17.5515C93.5873 17.5515 86.1208 31.1271 78.23 41.9451C94.8176 38.2542 105.72 26.0362 105.72 20.4363C105.72 18.6545 104.66 17.5515 102.369 17.5515ZM67.8786 51.2358C70.2119 49.0722 72.5028 46.2299 74.8785 43.0905C73.7331 43.2178 72.6301 43.3026 71.527 43.3026C59.7333 43.3026 59.2666 35.0724 59.2666 33.7573C59.2666 27.4786 64.2726 23.2363 69.4907 23.2363C72.4179 23.2363 75.43 24.5514 77.6785 27.5635L77.2966 27.9453C74.9209 25.0181 72.0785 23.8302 69.4059 23.8302C64.3574 23.8302 59.8605 28.115 59.8605 33.5028V33.5452C59.8605 34.5209 59.9878 42.7087 71.4422 42.7087C72.7149 42.7087 74.03 42.6238 75.3452 42.4542C83.5329 31.3392 92.0601 17 102.03 17C104.957 17 106.314 18.3576 106.314 20.3939C106.314 26.5453 94.5206 39.1451 77.7209 42.6238C75.0482 46.1874 72.2907 49.4965 69.4059 51.8722C77.3391 55.3933 86.7571 61.7993 94.0964 61.7993C101.902 61.7993 103.769 54.1631 103.769 54.1631L104.32 54.3752C104.32 54.3752 102.072 62.9872 94.0964 62.9872C86.2904 62.9872 76.7451 55.9449 68.8119 52.2964C66.0968 54.4176 63.2544 55.6903 60.1999 55.6903C57.4 55.6903 56 54.46 56 52.9328C56 51.2358 57.8242 49.6237 61.1757 49.6237C63.1696 49.6237 65.4605 50.2601 67.8786 51.2358Z" fill="#607763"/>
<path d="M8.50898 19.8785C4.69085 23.1451 2.23028 28.0662 2.23028 32.9025C2.23028 37.357 4.64843 44.1448 12.4119 44.1448C28.8723 44.1448 35.3631 14.2786 48.2599 5.66659C40.963 4.01207 33.8783 1.55151 27.5147 1.55151C16.0604 1.55151 8.5514 8.76351 8.5514 16.3998C8.5514 16.9937 8.59382 17.63 8.80594 18.4785C11.6059 16.4846 14.9574 15.3392 18.3937 15.3392C24.8421 15.3392 26.2845 19.9633 26.2845 22.0845H25.7754C25.7754 20.9815 25.0542 15.9331 18.5209 15.9331C15.0422 15.9331 11.7332 17.2907 9.01806 19.4543C10.1635 23.3148 13.5574 28.1935 20.727 28.1935C21.533 28.1935 23.0178 28.1087 24.8421 27.5572L25.0118 28.1087C23.1027 28.7026 21.6179 28.745 20.727 28.745C14.7452 28.745 10.0362 24.9693 8.50898 19.8785ZM1 32.9025C1 27.2602 3.96965 22.1269 8.25443 18.8603C8.12716 18.2664 7.99989 17.3755 7.99989 16.3998C7.99989 8.63625 15.4664 1 27.642 1C34.3874 1 42.4903 3.29087 49.872 4.69085C51.5689 3.84238 53.3931 3.3333 55.387 3.3333V3.84238C53.9022 3.84238 52.5022 4.22419 51.1447 4.94539C54.0295 5.45448 56.787 5.79386 59.29 5.79386C66.8414 5.79386 68.6656 2.56967 69.2596 1.59393L69.8535 1.63635C67.5202 6.98172 60.987 7.02415 59.0355 7.02415C55.8961 7.02415 52.7144 6.59991 49.575 5.92114C38.2903 14.321 31.248 44.6963 12.4544 44.6963C4.94539 44.6963 1 39.054 1 32.9025Z" fill="#607763"/>
<path d="M53.3214 42.7778C52.8357 42.4222 52.2786 41.963 51.65 41.4C50.9786 41.9037 50.2143 42.2963 49.3571 42.5778C48.5 42.8593 47.6 43 46.6571 43C44.8857 43 43.5 42.6296 42.5 41.8889C41.5 41.1481 41 40.1259 41 38.8222C41 37.7556 41.3071 36.8296 41.9214 36.0444C42.55 35.2593 43.5143 34.5778 44.8143 34C44.2714 33.3185 43.8714 32.7185 43.6143 32.2C43.3571 31.6667 43.2286 31.0963 43.2286 30.4889C43.2286 29.4222 43.5643 28.5778 44.2357 27.9556C44.9071 27.3185 45.8286 27 47 27C48.1143 27 49 27.2519 49.6571 27.7556C50.3143 28.2444 50.6429 28.9185 50.6429 29.7778C50.6429 30.7111 50.3286 31.4815 49.7 32.0889C49.0714 32.6815 48.1357 33.2815 46.8929 33.8889C48.5214 35.9333 50.2143 37.7926 51.9714 39.4667C52.4571 38.6667 52.7 37.7556 52.7 36.7333C52.7 36.1111 52.6214 35.5333 52.4643 35H54.2857C54.3286 35.3556 54.35 35.6519 54.35 35.8889C54.35 36.7185 54.2143 37.5037 53.9429 38.2444C53.6857 38.9852 53.3143 39.6518 52.8286 40.2444C53.9429 41.2667 55 42.1111 56 42.7778H53.3214ZM46.8286 27.8444C46.2429 27.8444 45.7786 28.0519 45.4357 28.4667C45.1071 28.8815 44.9429 29.4519 44.9429 30.1778C44.9429 30.6519 45.0429 31.1185 45.2429 31.5778C45.4571 32.0222 45.8 32.5555 46.2714 33.1778C46.9857 32.7481 47.5429 32.2519 47.9429 31.6889C48.3571 31.1111 48.5643 30.5259 48.5643 29.9333C48.5643 29.2815 48.4071 28.7704 48.0929 28.4C47.7929 28.0296 47.3714 27.8444 46.8286 27.8444ZM46.8286 42.0667C48.4571 42.0667 49.8143 41.6222 50.9 40.7333C49.0143 38.9852 47.1786 36.9926 45.3929 34.7556C43.9643 35.6741 43.25 36.9704 43.25 38.6444C43.25 39.7259 43.5643 40.5704 44.1929 41.1778C44.8357 41.7704 45.7143 42.0667 46.8286 42.0667Z" stroke="#607763" stroke-linejoin="round"/>
<path d="M59.9878 55.1388C62.4908 55.1388 64.909 53.8237 67.3695 51.6601C65.1635 50.7692 63.0847 50.1752 61.2605 50.1752C58.2485 50.1752 56.5515 51.5328 56.5515 52.9328C56.5515 54.0782 57.6969 55.1388 59.9878 55.1388ZM102.369 17.5515C93.5873 17.5515 86.1208 31.1271 78.23 41.9451C94.8176 38.2542 105.72 26.0362 105.72 20.4363C105.72 18.6545 104.66 17.5515 102.369 17.5515ZM67.8786 51.2358C70.2119 49.0722 72.5028 46.2299 74.8785 43.0905C73.7331 43.2178 72.6301 43.3026 71.527 43.3026C59.7333 43.3026 59.2666 35.0724 59.2666 33.7573C59.2666 27.4786 64.2726 23.2363 69.4907 23.2363C72.4179 23.2363 75.43 24.5514 77.6785 27.5635L77.2966 27.9453C74.9209 25.0181 72.0785 23.8302 69.4059 23.8302C64.3574 23.8302 59.8605 28.115 59.8605 33.5028V33.5452C59.8605 34.5209 59.9878 42.7087 71.4422 42.7087C72.7149 42.7087 74.03 42.6238 75.3452 42.4542C83.5329 31.3392 92.0601 17 102.03 17C104.957 17 106.314 18.3576 106.314 20.3939C106.314 26.5453 94.5206 39.1451 77.7209 42.6238C75.0482 46.1874 72.2907 49.4965 69.4059 51.8722C77.3391 55.3933 86.7571 61.7993 94.0964 61.7993C101.902 61.7993 103.769 54.1631 103.769 54.1631L104.32 54.3752C104.32 54.3752 102.072 62.9872 94.0964 62.9872C86.2904 62.9872 76.7451 55.9449 68.8119 52.2964C66.0968 54.4176 63.2544 55.6903 60.1999 55.6903C57.4 55.6903 56 54.46 56 52.9328C56 51.2358 57.8242 49.6237 61.1757 49.6237C63.1696 49.6237 65.4605 50.2601 67.8786 51.2358Z" stroke="#607763" stroke-linejoin="round"/>
<path d="M8.50898 19.8785C4.69085 23.1451 2.23028 28.0662 2.23028 32.9025C2.23028 37.357 4.64843 44.1448 12.4119 44.1448C28.8723 44.1448 35.3631 14.2786 48.2599 5.66659C40.963 4.01207 33.8783 1.55151 27.5147 1.55151C16.0604 1.55151 8.5514 8.76351 8.5514 16.3998C8.5514 16.9937 8.59382 17.63 8.80594 18.4785C11.6059 16.4846 14.9574 15.3392 18.3937 15.3392C24.8421 15.3392 26.2845 19.9633 26.2845 22.0845H25.7754C25.7754 20.9815 25.0542 15.9331 18.5209 15.9331C15.0422 15.9331 11.7332 17.2907 9.01806 19.4543C10.1635 23.3148 13.5574 28.1935 20.727 28.1935C21.533 28.1935 23.0178 28.1087 24.8421 27.5572L25.0118 28.1087C23.1027 28.7026 21.6179 28.745 20.727 28.745C14.7452 28.745 10.0362 24.9693 8.50898 19.8785ZM1 32.9025C1 27.2602 3.96965 22.1269 8.25443 18.8603C8.12716 18.2664 7.99989 17.3755 7.99989 16.3998C7.99989 8.63625 15.4664 1 27.642 1C34.3874 1 42.4903 3.29087 49.872 4.69085C51.5689 3.84238 53.3931 3.3333 55.387 3.3333V3.84238C53.9022 3.84238 52.5022 4.22419 51.1447 4.94539C54.0295 5.45448 56.787 5.79386 59.29 5.79386C66.8414 5.79386 68.6656 2.56967 69.2596 1.59393L69.8535 1.63635C67.5202 6.98172 60.987 7.02415 59.0355 7.02415C55.8961 7.02415 52.7144 6.59991 49.575 5.92114C38.2903 14.321 31.248 44.6963 12.4544 44.6963C4.94539 44.6963 1 39.054 1 32.9025Z" stroke="#607763" stroke-linejoin="round"/>
</svg>
