<svg width="235" height="126" viewBox="0 0 235 126" fill="none" xmlns="http://www.w3.org/2000/svg">
<path d="M63.5273 114.126C60.2503 114.126 58.6103 112.609 58.6103 110.97C58.6103 108.966 61.0385 107.025 65.3477 107.025C67.9578 107.025 70.9316 107.875 74.0889 109.15C70.5679 112.245 67.109 114.127 63.5273 114.127V114.126ZM124.164 60.3478C127.441 60.3478 128.96 61.9256 128.96 64.4751C128.96 72.4873 113.36 89.9682 89.6282 95.249C100.917 79.7719 111.6 60.3478 124.166 60.3478H124.164ZM74.8165 108.542C71.356 107.146 68.079 106.235 65.2264 106.235C60.4306 106.235 57.8206 108.542 57.8206 110.97C57.8206 113.156 59.8244 114.916 63.8289 114.916C68.1988 114.916 72.2655 113.095 76.1503 110.061C87.5001 115.281 101.157 125.356 112.326 125.356C123.737 125.356 126.955 113.035 126.955 113.035L126.165 112.731C126.165 112.731 123.494 123.657 112.326 123.657C101.825 123.657 88.3504 114.491 77.0006 109.454C81.128 106.055 85.0734 101.321 88.8976 96.2221C112.934 91.2444 129.807 73.2178 129.807 64.416C129.807 61.5027 127.866 59.5611 123.676 59.5611C109.411 59.5611 97.2114 80.0765 85.4978 95.9796C83.6168 96.2221 81.7342 96.3433 79.9139 96.3433C63.5258 96.3433 63.3439 84.6283 63.3439 83.2323V83.1716C63.3439 75.4626 69.7782 69.333 77.0006 69.333C80.8248 69.333 84.8915 71.0321 88.2898 75.2201L88.8354 74.6745C85.6191 70.3652 81.3083 68.4827 77.1204 68.4827C69.6554 68.4827 62.492 74.5532 62.492 83.5354C62.492 85.4164 63.1605 97.1922 80.0336 97.1922C81.6115 97.1922 83.1894 97.0709 84.8294 96.889C81.4311 101.38 78.1526 105.447 74.8149 108.543L74.8165 108.542Z" fill="#434634"/>
<path d="M131.265 110.484C134.239 110.484 138.367 107.51 150.203 91.728L149.353 91.4248C143.647 99.0126 135.453 109.33 132.054 109.33C130.961 109.33 130.718 108.359 130.718 107.266C130.718 104.231 134.36 97.0679 147.47 77.8878H143.706C141.096 82.5623 138.001 87.2353 135.209 91.4839C128.896 99.8599 121.067 109.45 116.757 109.45C115.24 109.45 114.45 108.66 114.45 107.264C114.45 101.862 123.858 88.1448 130.474 77.9469H126.892C121.672 87.4157 111.658 100.406 111.658 106.111C111.658 109.874 114.936 110.602 116.21 110.602C119.244 110.602 123.737 107.507 130.595 98.9474C128.836 102.103 127.743 104.834 127.743 106.838C127.743 109.933 130.413 110.481 131.264 110.481L131.265 110.484Z" fill="#434634"/>
<path d="M151.478 109.815C148.807 109.815 147.653 108.237 147.653 105.809C147.653 97.2301 161.797 77.5847 168.898 77.5847C169.991 77.5847 171.387 78.0697 171.387 80.1341C171.387 83.543 165.439 89.3195 165.439 89.3195H169.324C172.055 85.85 173.087 83.1186 173.087 81.1057C173.087 78.0712 170.659 76.6752 168.231 76.6752C157.791 76.6752 144.924 94.2471 144.924 104.101C144.924 107.934 146.683 110.605 151.479 110.605C159.673 110.605 172.298 96.9284 175.94 91.7583L175.09 91.4551C173.815 93.3968 160.279 109.817 151.479 109.817L151.478 109.815Z" fill="#434634"/>
<path d="M176.304 109.755C174.787 109.755 173.754 108.055 173.754 106.052C173.754 92.8193 189.11 77.7666 194.756 77.7666C195.849 77.7666 197.427 78.4956 197.427 80.4979C197.427 82.0151 196.637 84.3221 194.574 87.781C192.146 91.4839 189.841 95.0034 188.019 98.1001C184.377 103.684 179.704 109.755 176.304 109.755ZM185.348 103.502C184.863 104.777 184.558 105.991 184.558 106.963C184.558 110.058 186.987 110.605 187.835 110.605C190.87 110.605 194.876 107.51 206.773 91.728L205.923 91.4248C200.217 99.0126 191.842 109.451 188.502 109.451C187.41 109.451 187.106 108.48 187.106 107.387C187.106 104.352 190.809 97.2513 203.919 78.0091H200.58C199.729 79.4657 198.881 80.8617 198.03 82.3183C198.212 81.712 198.273 81.1648 198.273 80.6798C198.273 77.0981 194.812 76.6737 194.085 76.6737C184.677 76.6737 171.262 92.0917 171.262 103.32C171.262 107.629 173.265 110.603 176.301 110.603C179.214 110.603 182.432 107.387 185.345 103.502H185.348Z" fill="#434634"/>
<path d="M225.468 100.894C224.436 102.168 222.919 103.989 221.098 105.748C222.009 104.171 222.555 102.229 222.555 99.922C222.555 92.6995 215.332 88.025 214.967 83.2308C214.967 80.1356 218.002 76.3721 221.28 76.3721C223.343 76.3721 224.072 77.3437 224.072 78.679C224.072 81.3497 221.28 85.3558 221.28 85.3558L225.407 85.4771C226.136 83.7173 226.561 82.0167 226.561 80.56C226.561 76.1902 223.1 75.643 221.585 75.643C218.732 75.643 216.001 77.7074 214.787 80.2554C212.358 83.0474 209.506 86.629 205.924 91.4233L206.774 91.7264C209.021 88.7526 211.57 85.2921 214.18 82.2577C214.12 82.5002 214.12 82.8033 214.12 83.108C214.12 87.8431 218.916 93.0618 218.916 99.7386C218.916 108.296 212.968 110.785 208.659 110.785C204.895 110.785 201.8 107.508 201.8 103.623C201.8 100.892 203.56 97.8576 206.596 95.5506L206.17 95.005C204.167 96.5828 201.071 99.3748 201.071 103.928C201.071 107.084 203.438 111.576 209.691 111.576C216.428 111.576 221.041 107.51 225.229 102.653C227.414 100.104 230.146 96.5844 233.786 91.7279L232.936 91.4248C230.69 94.3987 228.08 97.8591 225.471 100.894H225.468Z" fill="#434634"/>
<path d="M63.5273 114.126C60.2503 114.126 58.6103 112.609 58.6103 110.97C58.6103 108.966 61.0385 107.025 65.3477 107.025C67.9578 107.025 70.9316 107.875 74.0889 109.15C70.5679 112.245 67.109 114.127 63.5273 114.127V114.126ZM124.164 60.3478C127.441 60.3478 128.96 61.9256 128.96 64.4751C128.96 72.4873 113.36 89.9682 89.6282 95.249C100.917 79.7719 111.6 60.3478 124.166 60.3478H124.164ZM74.8165 108.542C71.356 107.146 68.079 106.235 65.2264 106.235C60.4306 106.235 57.8206 108.542 57.8206 110.97C57.8206 113.156 59.8244 114.916 63.8289 114.916C68.1988 114.916 72.2655 113.095 76.1503 110.061C87.5001 115.281 101.157 125.356 112.326 125.356C123.737 125.356 126.955 113.035 126.955 113.035L126.165 112.731C126.165 112.731 123.494 123.657 112.326 123.657C101.825 123.657 88.3504 114.491 77.0006 109.454C81.128 106.055 85.0734 101.321 88.8976 96.2221C112.934 91.2444 129.807 73.2178 129.807 64.416C129.807 61.5027 127.866 59.5611 123.676 59.5611C109.411 59.5611 97.2114 80.0765 85.4978 95.9796C83.6168 96.2221 81.7342 96.3433 79.9139 96.3433C63.5258 96.3433 63.3439 84.6283 63.3439 83.2323V83.1716C63.3439 75.4626 69.7782 69.333 77.0006 69.333C80.8248 69.333 84.8915 71.0321 88.2898 75.2201L88.8354 74.6745C85.6191 70.3652 81.3083 68.4827 77.1204 68.4827C69.6554 68.4827 62.492 74.5532 62.492 83.5354C62.492 85.4164 63.1605 97.1922 80.0336 97.1922C81.6115 97.1922 83.1894 97.0709 84.8294 96.889C81.4311 101.38 78.1526 105.447 74.8149 108.543L74.8165 108.542Z" stroke="#434634" stroke-width="0.287989" stroke-miterlimit="22.9256"/>
<path d="M131.265 110.484C134.239 110.484 138.367 107.51 150.203 91.728L149.353 91.4248C143.647 99.0126 135.453 109.33 132.054 109.33C130.961 109.33 130.718 108.359 130.718 107.266C130.718 104.231 134.36 97.0679 147.47 77.8878H143.706C141.096 82.5623 138.001 87.2353 135.209 91.4839C128.896 99.8599 121.067 109.45 116.757 109.45C115.24 109.45 114.45 108.66 114.45 107.264C114.45 101.862 123.858 88.1448 130.474 77.9469H126.892C121.672 87.4157 111.658 100.406 111.658 106.111C111.658 109.874 114.936 110.602 116.21 110.602C119.244 110.602 123.737 107.507 130.595 98.9474C128.836 102.103 127.743 104.834 127.743 106.838C127.743 109.933 130.413 110.481 131.264 110.481L131.265 110.484Z" stroke="#434634" stroke-width="0.287989" stroke-miterlimit="22.9256"/>
<path d="M151.478 109.815C148.807 109.815 147.653 108.237 147.653 105.809C147.653 97.2301 161.797 77.5847 168.898 77.5847C169.991 77.5847 171.387 78.0697 171.387 80.1341C171.387 83.543 165.439 89.3195 165.439 89.3195H169.324C172.055 85.85 173.087 83.1186 173.087 81.1057C173.087 78.0712 170.659 76.6752 168.231 76.6752C157.791 76.6752 144.924 94.2471 144.924 104.101C144.924 107.934 146.683 110.605 151.479 110.605C159.673 110.605 172.298 96.9284 175.94 91.7583L175.09 91.4551C173.815 93.3968 160.279 109.817 151.479 109.817L151.478 109.815Z" stroke="#434634" stroke-width="0.287989" stroke-miterlimit="22.9256"/>
<path d="M176.304 109.755C174.787 109.755 173.754 108.055 173.754 106.052C173.754 92.8193 189.11 77.7666 194.756 77.7666C195.849 77.7666 197.427 78.4956 197.427 80.4979C197.427 82.0151 196.637 84.3221 194.574 87.781C192.146 91.4839 189.841 95.0034 188.019 98.1001C184.377 103.684 179.704 109.755 176.304 109.755ZM185.348 103.502C184.863 104.777 184.558 105.991 184.558 106.963C184.558 110.058 186.987 110.605 187.835 110.605C190.87 110.605 194.876 107.51 206.773 91.728L205.923 91.4248C200.217 99.0126 191.842 109.451 188.502 109.451C187.41 109.451 187.106 108.48 187.106 107.387C187.106 104.352 190.809 97.2513 203.919 78.0091H200.58C199.729 79.4657 198.881 80.8617 198.03 82.3183C198.212 81.712 198.273 81.1648 198.273 80.6798C198.273 77.0981 194.812 76.6737 194.085 76.6737C184.677 76.6737 171.262 92.0917 171.262 103.32C171.262 107.629 173.265 110.603 176.301 110.603C179.214 110.603 182.432 107.387 185.345 103.502H185.348Z" stroke="#434634" stroke-width="0.287989" stroke-miterlimit="22.9256"/>
<path d="M225.468 100.894C224.436 102.168 222.919 103.989 221.098 105.748C222.009 104.171 222.555 102.229 222.555 99.922C222.555 92.6995 215.332 88.025 214.967 83.2308C214.967 80.1356 218.002 76.3721 221.28 76.3721C223.343 76.3721 224.072 77.3437 224.072 78.679C224.072 81.3497 221.28 85.3558 221.28 85.3558L225.407 85.4771C226.136 83.7173 226.561 82.0167 226.561 80.56C226.561 76.1902 223.1 75.643 221.585 75.643C218.732 75.643 216.001 77.7074 214.787 80.2554C212.358 83.0474 209.506 86.629 205.924 91.4233L206.774 91.7264C209.021 88.7526 211.57 85.2921 214.18 82.2577C214.12 82.5002 214.12 82.8033 214.12 83.108C214.12 87.8431 218.916 93.0618 218.916 99.7386C218.916 108.296 212.968 110.785 208.659 110.785C204.895 110.785 201.8 107.508 201.8 103.623C201.8 100.892 203.56 97.8576 206.596 95.5506L206.17 95.005C204.167 96.5828 201.071 99.3748 201.071 103.928C201.071 107.084 203.438 111.576 209.691 111.576C216.428 111.576 221.041 107.51 225.229 102.653C227.414 100.104 230.146 96.5844 233.786 91.7279L232.936 91.4248C230.69 94.3987 228.08 97.8591 225.471 100.894H225.468Z" stroke="#434634" stroke-width="0.287989" stroke-miterlimit="22.9256"/>
<path d="M10.9572 28.0005C13.1429 35.2851 19.8803 40.6872 28.4381 40.6872C29.7128 40.6872 31.8364 40.6266 34.5692 39.7763L34.3267 38.9866C31.7166 39.7763 29.5931 39.8975 28.4396 39.8975C18.1812 39.8975 13.3263 32.9176 11.6863 27.3943C15.5711 24.2991 20.3062 22.356 25.2824 22.356C34.6299 22.356 35.6621 29.5784 35.6621 31.1563H36.3912C36.3912 28.1218 34.3267 21.5056 25.102 21.5056C20.185 21.5056 15.3907 23.1441 11.3846 25.9967C11.0815 24.7826 11.0208 23.8717 11.0208 23.0229C11.0208 12.0975 21.7644 1.77839 38.1524 1.77839C47.2574 1.77839 57.3931 5.29944 67.8335 7.66549C49.381 19.9869 40.0941 62.7184 16.5442 62.7184C5.43689 62.7184 1.97648 53.0071 1.97648 46.6334C1.97648 39.7141 5.49752 32.6735 10.9602 27.999L10.9572 28.0005ZM0.213684 46.6349C0.213684 55.4353 5.85827 63.5081 16.6018 63.5081C43.4908 63.5081 53.5659 20.049 69.7115 8.03079C74.2026 9.00237 78.7558 9.60866 83.247 9.60866C86.0389 9.60866 95.3864 9.54803 98.7256 1.89965L97.8753 1.83902C97.025 3.23501 94.4149 7.84738 83.6122 7.84738C80.0306 7.84738 76.0851 7.36235 71.9578 6.63328C73.8994 5.60107 75.9032 5.05541 78.0283 5.05541V4.32634C75.1757 4.32634 72.5656 5.05541 70.1374 6.26799C59.5758 4.26571 47.9835 0.987183 38.3328 0.987183C20.9125 0.987183 10.2296 11.9126 10.2296 23.0199C10.2296 24.4158 10.4115 25.6906 10.5934 26.5409C4.46228 31.2154 0.213684 38.5591 0.213684 46.6319V46.6349Z" fill="#434634"/>
<path d="M55.2059 59.5641C53.6887 59.5641 52.6565 57.865 52.6565 55.8612C52.6565 42.6288 68.0123 27.5761 73.6584 27.5761C74.7513 27.5761 76.3292 28.3052 76.3292 30.3075C76.3292 31.8247 75.5395 34.1317 73.4766 37.5906C71.0484 41.2935 68.7429 44.813 66.921 47.9097C63.2787 53.4936 58.6057 59.5641 55.2059 59.5641ZM64.2503 53.3117C63.7653 54.5865 63.4606 55.8006 63.4606 56.7721C63.4606 59.8673 65.8888 60.4144 66.7376 60.4144C69.7721 60.4144 73.7782 57.3193 85.6752 41.5375L84.8248 41.2344C79.1196 48.8221 70.7437 59.261 67.4045 59.261C66.3117 59.261 66.0085 58.2894 66.0085 57.1965C66.0085 54.162 69.7115 47.0608 82.821 27.8186H79.4819C78.6316 29.2753 77.7828 30.6712 76.9324 32.1279C77.1143 31.5216 77.1749 30.9744 77.1749 30.4894C77.1749 26.9077 73.7145 26.4833 72.987 26.4833C63.5788 26.4833 50.1646 41.9013 50.1646 53.1298C50.1646 57.4391 52.1669 60.4129 55.2029 60.4129C58.1161 60.4129 61.334 57.1965 64.2473 53.3117H64.2503Z" fill="#434634"/>
<path d="M101.396 41.2329C95.7517 48.6979 86.8286 59.502 82.9453 59.502C75.3575 59.502 92.8991 33.8876 96.9052 27.8793H93.0204C91.6244 30.3681 90.9574 31.5216 87.012 37.7725C82.339 45.1783 74.8119 56.4675 80.5171 59.9264C81.0628 60.2902 81.6706 60.4114 82.3981 60.4114C86.1617 60.4114 92.0488 55.07 102.247 41.5345L101.396 41.2314V41.2329ZM99.6365 19.4427C100.851 19.4427 102.307 18.3499 102.976 16.9539C103.643 15.6185 103.218 14.5257 102.065 14.5257C100.911 14.5257 99.394 15.6185 98.7256 16.9539C98.0586 18.3499 98.4831 19.4427 99.6365 19.4427Z" fill="#434634"/>
<path d="M113.839 59.502C112.382 59.502 111.776 58.9563 111.776 57.9241C111.776 52.8252 127.982 36.619 127.982 29.5784C127.982 27.1502 126.162 26.2393 124.522 26.2393C120.879 26.2393 114.932 29.0312 107.647 36.7402C111.956 29.7603 111.653 30.306 113.292 27.8171L109.589 27.7565C109.589 27.8171 109.589 27.8171 89.6797 60.4114H93.1401L103.52 43.4762C108.74 35.7065 118.391 27.5125 123.186 27.5125C124.764 27.5125 125.372 28.1794 125.372 29.151C125.372 34.2499 109.651 48.2098 109.651 56.1613C109.651 58.347 111.108 60.4099 113.475 60.4099C116.754 60.4099 122.641 56.7676 133.506 41.533L132.655 41.2298C121.851 56.04 116.51 59.4989 113.839 59.4989V59.502Z" fill="#434634"/>
<path d="M133.869 59.5641C132.352 59.5641 131.32 57.865 131.32 55.8612C131.32 42.6288 146.676 27.5761 152.322 27.5761C153.415 27.5761 154.993 28.3052 154.993 30.3075C154.993 31.8247 154.203 34.1317 152.14 37.5906C149.712 41.2935 147.406 44.813 145.584 47.9097C141.942 53.4936 137.269 59.5641 133.869 59.5641ZM142.914 53.3117C142.429 54.5865 142.124 55.8006 142.124 56.7721C142.124 59.8673 144.552 60.4144 145.401 60.4144C148.436 60.4144 152.442 57.3193 164.339 41.5375L163.488 41.2344C157.783 48.8221 149.407 59.261 146.068 59.261C144.975 59.261 144.672 58.2894 144.672 57.1965C144.672 54.162 148.375 47.0608 161.484 27.8186H158.145C157.295 29.2753 156.446 30.6712 155.596 32.1279C155.778 31.5216 155.838 30.9744 155.838 30.4894C155.838 26.9077 152.378 26.4833 151.65 26.4833C142.242 26.4833 128.828 41.9013 128.828 53.1298C128.828 57.4391 130.83 60.4129 133.866 60.4129C136.78 60.4129 139.997 57.1965 142.911 53.3117H142.914Z" fill="#434634"/>
<path d="M172.229 26.6046C172.229 24.0551 170.591 23.5701 170.044 23.5701C170.529 25.0267 170.773 26.1802 170.347 28.1824C169.741 28.1218 169.133 28.0006 168.587 27.8793L168.042 28.5477C168.708 28.7296 169.438 28.9115 170.104 28.9721C169.375 31.5822 167.555 35.3458 163.488 41.2329L164.339 41.536C168.527 35.8308 170.53 33.342 171.805 29.2147C172.898 29.3359 174.112 29.3965 175.325 29.3965C177.632 29.3965 179.937 29.2147 181.698 28.9721C171.561 39.8369 164.096 49.4876 164.096 55.6187C164.096 58.35 165.735 60.4145 167.799 60.4145C171.866 60.4145 178.482 53.9196 187.769 41.5375L186.918 41.2344C181.153 48.8828 172.169 59.5035 168.284 59.5035C166.827 59.5035 166.524 58.5926 166.524 57.7437C166.524 51.8566 183.641 28.8524 183.641 28.2446C183.641 28.0627 183.52 27.9414 183.338 27.9414C183.278 27.9414 179.635 28.4871 175.447 28.4871C174.355 28.4871 173.201 28.4871 172.049 28.3658C172.17 27.6974 172.231 27.0911 172.231 26.6061L172.229 26.6046Z" fill="#434634"/>
<path d="M188.133 59.5641C186.615 59.5641 185.583 57.865 185.583 55.8612C185.583 42.6288 200.939 27.5761 206.585 27.5761C207.678 27.5761 209.256 28.3052 209.256 30.3075C209.256 31.8247 208.466 34.1317 206.403 37.5906C203.975 41.2935 201.67 44.813 199.848 47.9097C196.205 53.4936 191.532 59.5641 188.133 59.5641ZM197.177 53.3117C196.692 54.5865 196.387 55.8006 196.387 56.7721C196.387 59.8673 198.815 60.4144 199.664 60.4144C202.699 60.4144 206.705 57.3193 218.602 41.5375L217.751 41.2344C212.046 48.8221 203.67 59.261 200.331 59.261C199.238 59.261 198.935 58.2894 198.935 57.1965C198.935 54.162 202.638 47.0608 215.748 27.8186H212.408C211.558 29.2753 210.709 30.6712 209.859 32.1279C210.041 31.5216 210.102 30.9744 210.102 30.4894C210.102 26.9077 206.641 26.4833 205.914 26.4833C196.505 26.4833 183.091 41.9013 183.091 53.1298C183.091 57.4391 185.093 60.4129 188.129 60.4129C191.043 60.4129 194.261 57.1965 197.174 53.3117H197.177Z" fill="#434634"/>
<path d="M10.9572 28.0005C13.1429 35.2851 19.8803 40.6872 28.4381 40.6872C29.7128 40.6872 31.8364 40.6266 34.5692 39.7763L34.3267 38.9866C31.7166 39.7763 29.5931 39.8975 28.4396 39.8975C18.1812 39.8975 13.3263 32.9176 11.6863 27.3943C15.5711 24.2991 20.3062 22.356 25.2824 22.356C34.6299 22.356 35.6621 29.5784 35.6621 31.1563H36.3912C36.3912 28.1218 34.3267 21.5056 25.102 21.5056C20.185 21.5056 15.3907 23.1441 11.3846 25.9967C11.0815 24.7826 11.0208 23.8717 11.0208 23.0229C11.0208 12.0975 21.7644 1.77839 38.1524 1.77839C47.2574 1.77839 57.3931 5.29944 67.8335 7.66549C49.381 19.9869 40.0941 62.7184 16.5442 62.7184C5.43689 62.7184 1.97648 53.0071 1.97648 46.6334C1.97648 39.7141 5.49752 32.6735 10.9602 27.999L10.9572 28.0005ZM0.213684 46.6349C0.213684 55.4353 5.85827 63.5081 16.6018 63.5081C43.4908 63.5081 53.5659 20.049 69.7115 8.03079C74.2026 9.00237 78.7558 9.60866 83.247 9.60866C86.0389 9.60866 95.3864 9.54803 98.7256 1.89965L97.8753 1.83902C97.025 3.23501 94.4149 7.84738 83.6122 7.84738C80.0306 7.84738 76.0851 7.36235 71.9578 6.63328C73.8994 5.60107 75.9032 5.05541 78.0283 5.05541V4.32634C75.1757 4.32634 72.5656 5.05541 70.1374 6.26799C59.5758 4.26571 47.9835 0.987183 38.3328 0.987183C20.9125 0.987183 10.2296 11.9126 10.2296 23.0199C10.2296 24.4158 10.4115 25.6906 10.5934 26.5409C4.46228 31.2154 0.213684 38.5591 0.213684 46.6319V46.6349Z" stroke="#434634" stroke-width="0.287989" stroke-miterlimit="22.9256"/>
<path d="M55.2059 59.5641C53.6887 59.5641 52.6565 57.865 52.6565 55.8612C52.6565 42.6288 68.0123 27.5761 73.6584 27.5761C74.7513 27.5761 76.3292 28.3052 76.3292 30.3075C76.3292 31.8247 75.5395 34.1317 73.4766 37.5906C71.0484 41.2935 68.7429 44.813 66.921 47.9097C63.2787 53.4936 58.6057 59.5641 55.2059 59.5641ZM64.2503 53.3117C63.7653 54.5865 63.4606 55.8005 63.4606 56.7721C63.4606 59.8673 65.8888 60.4144 66.7376 60.4144C69.7721 60.4144 73.7782 57.3193 85.6752 41.5375L84.8248 41.2344C79.1196 48.8221 70.7437 59.261 67.4045 59.261C66.3117 59.261 66.0086 58.2894 66.0086 57.1965C66.0086 54.162 69.7115 47.0608 82.821 27.8186H79.4819C78.6316 29.2753 77.7828 30.6712 76.9324 32.1279C77.1143 31.5216 77.1749 30.9744 77.1749 30.4894C77.1749 26.9077 73.7145 26.4833 72.987 26.4833C63.5788 26.4833 50.1646 41.9013 50.1646 53.1298C50.1646 57.4391 52.1669 60.4129 55.2029 60.4129C58.1161 60.4129 61.334 57.1965 64.2473 53.3117H64.2503Z" stroke="#434634" stroke-width="0.287989" stroke-miterlimit="22.9256"/>
<path d="M101.396 41.2329C95.7517 48.6979 86.8286 59.502 82.9453 59.502C75.3575 59.502 92.8991 33.8876 96.9052 27.8793H93.0204C91.6244 30.3681 90.9574 31.5216 87.012 37.7725C82.339 45.1783 74.8119 56.4675 80.5171 59.9264C81.0628 60.2902 81.6706 60.4114 82.3981 60.4114C86.1617 60.4114 92.0488 55.07 102.247 41.5345L101.396 41.2314V41.2329ZM99.6365 19.4427C100.851 19.4427 102.307 18.3499 102.976 16.9539C103.643 15.6185 103.218 14.5257 102.065 14.5257C100.911 14.5257 99.394 15.6185 98.7256 16.9539C98.0586 18.3499 98.4831 19.4427 99.6365 19.4427Z" stroke="#434634" stroke-width="0.287989" stroke-miterlimit="22.9256"/>
<path d="M113.839 59.502C112.382 59.502 111.776 58.9563 111.776 57.9241C111.776 52.8252 127.982 36.619 127.982 29.5784C127.982 27.1502 126.162 26.2393 124.522 26.2393C120.879 26.2393 114.932 29.0312 107.647 36.7402C111.956 29.7603 111.653 30.306 113.292 27.8171L109.589 27.7565C109.589 27.8171 109.589 27.8171 89.6797 60.4114H93.1401L103.52 43.4762C108.74 35.7065 118.391 27.5125 123.186 27.5125C124.764 27.5125 125.372 28.1794 125.372 29.151C125.372 34.2499 109.651 48.2098 109.651 56.1613C109.651 58.347 111.108 60.4099 113.475 60.4099C116.754 60.4099 122.641 56.7676 133.506 41.533L132.655 41.2298C121.851 56.04 116.51 59.4989 113.839 59.4989V59.502Z" stroke="#434634" stroke-width="0.287989" stroke-miterlimit="22.9256"/>
<path d="M133.869 59.5641C132.352 59.5641 131.32 57.865 131.32 55.8612C131.32 42.6288 146.676 27.5761 152.322 27.5761C153.415 27.5761 154.993 28.3052 154.993 30.3075C154.993 31.8247 154.203 34.1317 152.14 37.5906C149.712 41.2935 147.406 44.813 145.584 47.9097C141.942 53.4936 137.269 59.5641 133.869 59.5641ZM142.914 53.3117C142.429 54.5865 142.124 55.8005 142.124 56.7721C142.124 59.8673 144.552 60.4144 145.401 60.4144C148.436 60.4144 152.442 57.3193 164.339 41.5375L163.488 41.2344C157.783 48.8221 149.407 59.261 146.068 59.261C144.975 59.261 144.672 58.2894 144.672 57.1965C144.672 54.162 148.375 47.0608 161.484 27.8186H158.145C157.295 29.2753 156.446 30.6712 155.596 32.1279C155.778 31.5216 155.838 30.9744 155.838 30.4894C155.838 26.9077 152.378 26.4833 151.65 26.4833C142.242 26.4833 128.828 41.9013 128.828 53.1298C128.828 57.4391 130.83 60.4129 133.866 60.4129C136.78 60.4129 139.997 57.1965 142.911 53.3117H142.914Z" stroke="#434634" stroke-width="0.287989" stroke-miterlimit="22.9256"/>
<path d="M172.229 26.6046C172.229 24.0551 170.591 23.5701 170.044 23.5701C170.529 25.0267 170.773 26.1802 170.347 28.1824C169.741 28.1218 169.133 28.0006 168.587 27.8793L168.042 28.5477C168.708 28.7296 169.438 28.9115 170.104 28.9721C169.375 31.5822 167.555 35.3458 163.488 41.2329L164.339 41.536C168.527 35.8308 170.53 33.342 171.805 29.2147C172.898 29.3359 174.112 29.3965 175.325 29.3965C177.632 29.3965 179.937 29.2147 181.698 28.9721C171.561 39.8369 164.096 49.4876 164.096 55.6187C164.096 58.35 165.735 60.4145 167.799 60.4145C171.866 60.4145 178.482 53.9196 187.769 41.5375L186.918 41.2344C181.153 48.8828 172.169 59.5035 168.284 59.5035C166.827 59.5035 166.524 58.5926 166.524 57.7437C166.524 51.8566 183.641 28.8524 183.641 28.2446C183.641 28.0627 183.52 27.9414 183.338 27.9414C183.278 27.9414 179.635 28.4871 175.447 28.4871C174.355 28.4871 173.201 28.4871 172.049 28.3658C172.17 27.6974 172.231 27.0911 172.231 26.6061L172.229 26.6046Z" stroke="#434634" stroke-width="0.287989" stroke-miterlimit="22.9256"/>
<path d="M188.133 59.5641C186.615 59.5641 185.583 57.865 185.583 55.8612C185.583 42.6288 200.939 27.5761 206.585 27.5761C207.678 27.5761 209.256 28.3052 209.256 30.3075C209.256 31.8247 208.466 34.1317 206.403 37.5906C203.975 41.2935 201.67 44.813 199.848 47.9097C196.205 53.4936 191.532 59.5641 188.133 59.5641ZM197.177 53.3117C196.692 54.5865 196.387 55.8005 196.387 56.7721C196.387 59.8673 198.815 60.4144 199.664 60.4144C202.699 60.4144 206.705 57.3193 218.602 41.5375L217.751 41.2344C212.046 48.8221 203.67 59.261 200.331 59.261C199.238 59.261 198.935 58.2894 198.935 57.1965C198.935 54.162 202.638 47.0608 215.748 27.8186H212.408C211.558 29.2753 210.709 30.6712 209.859 32.1279C210.041 31.5216 210.102 30.9744 210.102 30.4894C210.102 26.9077 206.641 26.4833 205.914 26.4833C196.505 26.4833 183.091 41.9013 183.091 53.1298C183.091 57.4391 185.093 60.4129 188.129 60.4129C191.043 60.4129 194.261 57.1965 197.174 53.3117H197.177Z" stroke="#434634" stroke-width="0.287989" stroke-miterlimit="22.9256"/>
<path d="M46.7588 91.2459C46.0555 90.723 45.4234 90.2167 44.8641 89.7302C44.0153 90.3077 43.0634 90.7503 42.0085 91.0565C40.9535 91.3626 39.8379 91.5157 38.6648 91.5157C36.3548 91.5157 34.5404 91.061 33.2233 90.1485C31.9061 89.2376 31.2468 87.9871 31.2468 86.3986C31.2468 85.0996 31.6439 83.981 32.4381 83.0413C33.2324 82.103 34.4692 81.2724 36.1471 80.5509C35.4256 79.6839 34.9012 78.9352 34.5768 78.3031C34.2525 77.671 34.0903 77.0041 34.0903 76.2993C34.0903 75.0003 34.5374 73.9621 35.4302 73.186C36.3229 72.4099 37.5461 72.0219 39.0983 72.0219C40.5594 72.0219 41.728 72.3326 42.6041 72.9556C43.4802 73.5786 43.9168 74.4137 43.9168 75.4596C43.9168 76.5418 43.5378 77.4452 42.78 78.1667C42.0221 78.8882 40.8307 79.6369 39.2059 80.413C41.246 82.8685 43.3029 85.0693 45.3779 87.0186C45.919 86.0439 46.1904 84.9966 46.1904 83.878C46.1904 83.0292 46.0918 82.3077 45.8933 81.712H48.5458C48.6004 82.1985 48.6277 82.579 48.6277 82.8488C48.6277 83.8416 48.4564 84.7935 48.1138 85.7044C47.7713 86.6154 47.2832 87.4324 46.6527 88.1538C48.0971 89.4528 49.4234 90.482 50.6314 91.2399H46.7603L46.7588 91.2459ZM38.8542 73.1617C38.1858 73.1617 37.6629 73.4103 37.2839 73.906C36.905 74.4016 36.7155 75.0746 36.7155 75.9234C36.7155 76.4827 36.8322 77.0193 37.0672 77.5346C37.3021 78.0485 37.6992 78.6487 38.2585 79.3353C39.0528 78.8124 39.6712 78.2258 40.1123 77.5756C40.5549 76.9253 40.7762 76.2857 40.7762 75.6536C40.7762 74.8776 40.6094 74.2682 40.276 73.8256C39.9425 73.383 39.4681 73.1617 38.8542 73.1617ZM38.9891 90.2713C40.902 90.2713 42.4996 89.7848 43.7803 88.8102C41.6144 86.8427 39.3681 84.46 37.0399 81.6635C36.282 82.2046 35.7045 82.8639 35.3074 83.64C34.9103 84.416 34.7117 85.2649 34.7117 86.1849C34.7117 87.4854 35.0907 88.4903 35.8485 89.2042C36.6064 89.9166 37.6538 90.2728 38.9891 90.2728V90.2713Z" fill="#7A8E74"/>
<path d="M46.7588 91.2459C46.0555 90.723 45.4234 90.2167 44.8641 89.7302C44.0153 90.3077 43.0634 90.7503 42.0085 91.0565C40.9535 91.3626 39.8379 91.5157 38.6648 91.5157C36.3548 91.5157 34.5404 91.061 33.2233 90.1485C31.9061 89.2376 31.2468 87.9871 31.2468 86.3986C31.2468 85.0996 31.6439 83.981 32.4381 83.0413C33.2324 82.103 34.4692 81.2724 36.1471 80.5509C35.4256 79.6839 34.9012 78.9352 34.5768 78.3031C34.2525 77.671 34.0903 77.0041 34.0903 76.2993C34.0903 75.0003 34.5374 73.9621 35.4302 73.186C36.3229 72.4099 37.5461 72.0219 39.0983 72.0219C40.5594 72.0219 41.728 72.3326 42.6041 72.9556C43.4802 73.5786 43.9168 74.4137 43.9168 75.4596C43.9168 76.5418 43.5378 77.4452 42.78 78.1667C42.0221 78.8882 40.8307 79.6369 39.2059 80.413C41.246 82.8685 43.3029 85.0693 45.3779 87.0186C45.919 86.0439 46.1904 84.9966 46.1904 83.878C46.1904 83.0292 46.0918 82.3077 45.8933 81.712H48.5458C48.6004 82.1985 48.6277 82.579 48.6277 82.8488C48.6277 83.8416 48.4564 84.7935 48.1138 85.7044C47.7713 86.6154 47.2832 87.4324 46.6527 88.1538C48.0971 89.4528 49.4234 90.482 50.6314 91.2399H46.7603L46.7588 91.2459ZM38.8542 73.1617C38.1858 73.1617 37.6629 73.4103 37.2839 73.906C36.905 74.4016 36.7155 75.0746 36.7155 75.9234C36.7155 76.4827 36.8322 77.0193 37.0672 77.5346C37.3021 78.0485 37.6992 78.6487 38.2585 79.3353C39.0528 78.8124 39.6712 78.2258 40.1123 77.5756C40.5549 76.9253 40.7762 76.2857 40.7762 75.6536C40.7762 74.8776 40.6094 74.2682 40.276 73.8256C39.9425 73.383 39.4681 73.1617 38.8542 73.1617ZM38.9891 90.2713C40.902 90.2713 42.4996 89.7848 43.7803 88.8102C41.6144 86.8427 39.3681 84.46 37.0399 81.6635C36.282 82.2046 35.7045 82.8639 35.3074 83.64C34.9103 84.416 34.7117 85.2649 34.7117 86.1849C34.7117 87.4854 35.0907 88.4903 35.8485 89.2042C36.6064 89.9166 37.6538 90.2728 38.9891 90.2728V90.2713Z" stroke="#7A8E74" stroke-width="0.287989" stroke-miterlimit="22.9256"/>
</svg>
