<svg width="640" height="160" viewBox="0 0 640 160" fill="none" xmlns="http://www.w3.org/2000/svg">
<path d="M170.736 76.576C170.736 73.6069 168.333 71.2 165.368 71.2C162.403 71.2 160 73.6069 160 76.576V83.424C160 86.393 162.403 88.8 165.368 88.8C168.333 88.8 170.736 86.393 170.736 83.424V76.576Z" fill="black"/>
<path d="M190.608 37.376C190.608 34.4069 188.205 32 185.24 32C182.275 32 179.872 34.4069 179.872 37.376V122.624C179.872 125.593 182.275 128 185.24 128C188.205 128 190.608 125.593 190.608 122.624V37.376Z" fill="black"/>
<path d="M210.48 70.976C210.48 68.0069 208.077 65.6 205.112 65.6C202.147 65.6 199.744 68.0069 199.744 70.976V89.024C199.744 91.9931 202.147 94.4 205.112 94.4C208.077 94.4 210.48 91.9931 210.48 89.024V70.976Z" fill="black"/>
<path d="M230.368 65.376C230.368 62.4069 227.965 60 225 60C222.035 60 219.632 62.4069 219.632 65.376V94.624C219.632 97.5931 222.035 100 225 100C227.965 100 230.368 97.5931 230.368 94.624V65.376Z" fill="black"/>
<path d="M250.24 70.976C250.24 68.0069 247.837 65.6 244.872 65.6C241.907 65.6 239.504 68.0069 239.504 70.976V89.024C239.504 91.9931 241.907 94.4 244.872 94.4C247.837 94.4 250.24 91.9931 250.24 89.024V70.976Z" fill="black"/>
<path d="M270.112 59.776C270.112 56.8069 267.709 54.4 264.744 54.4C261.779 54.4 259.376 56.8069 259.376 59.776V100.224C259.376 103.193 261.779 105.6 264.744 105.6C267.709 105.6 270.112 103.193 270.112 100.224V59.776Z" fill="black"/>
<path d="M289.984 54.176C289.984 51.207 287.581 48.8 284.616 48.8C281.651 48.8 279.248 51.207 279.248 54.176V105.824C279.248 108.793 281.651 111.2 284.616 111.2C287.581 111.2 289.984 108.793 289.984 105.824V54.176Z" fill="black"/>
<path d="M309.872 37.376C309.872 34.4069 307.469 32 304.504 32C301.539 32 299.136 34.4069 299.136 37.376V122.624C299.136 125.593 301.539 128 304.504 128C307.469 128 309.872 125.593 309.872 122.624V37.376Z" fill="black"/>
<path d="M329.744 42.976C329.744 40.0069 327.341 37.6 324.376 37.6C321.411 37.6 319.008 40.0069 319.008 42.976V117.024C319.008 119.993 321.411 122.4 324.376 122.4C327.341 122.4 329.744 119.993 329.744 117.024V42.976Z" fill="black"/>
<path d="M349.616 48.576C349.616 45.6069 347.213 43.2 344.248 43.2C341.283 43.2 338.88 45.6069 338.88 48.576V111.424C338.88 114.393 341.283 116.8 344.248 116.8C347.213 116.8 349.616 114.393 349.616 111.424V48.576Z" fill="black"/>
<path d="M369.488 65.376C369.488 62.4069 367.085 60 364.12 60C361.155 60 358.752 62.4069 358.752 65.376V94.624C358.752 97.5931 361.155 100 364.12 100C367.085 100 369.488 97.5931 369.488 94.624V65.376Z" fill="black"/>
<path d="M389.36 37.376C389.36 34.4069 386.957 32 383.992 32C381.027 32 378.624 34.4069 378.624 37.376V122.624C378.624 125.593 381.027 128 383.992 128C386.957 128 389.36 125.593 389.36 122.624V37.376Z" fill="black"/>
<path d="M409.248 37.376C409.248 34.4069 406.845 32 403.88 32C400.915 32 398.512 34.4069 398.512 37.376V122.624C398.512 125.593 400.915 128 403.88 128C406.845 128 409.248 125.593 409.248 122.624V37.376Z" fill="black"/>
<path d="M429.12 48.576C429.12 45.6069 426.717 43.2 423.752 43.2C420.787 43.2 418.384 45.6069 418.384 48.576V111.424C418.384 114.393 420.787 116.8 423.752 116.8C426.717 116.8 429.12 114.393 429.12 111.424V48.576Z" fill="black"/>
<path d="M448.992 42.976C448.992 40.0069 446.589 37.6 443.624 37.6C440.659 37.6 438.256 40.0069 438.256 42.976V117.024C438.256 119.993 440.659 122.4 443.624 122.4C446.589 122.4 448.992 119.993 448.992 117.024V42.976Z" fill="black"/>
<path d="M468.864 76.576C468.864 73.6069 466.461 71.2 463.496 71.2C460.531 71.2 458.128 73.6069 458.128 76.576V83.424C458.128 86.393 460.531 88.8 463.496 88.8C466.461 88.8 468.864 86.393 468.864 83.424V76.576Z" fill="black"/>
<path d="M488.752 37.376C488.752 34.4069 486.349 32 483.384 32C480.419 32 478.016 34.4069 478.016 37.376V122.624C478.016 125.593 480.419 128 483.384 128C486.349 128 488.752 125.593 488.752 122.624V37.376Z" fill="black"/>
<path d="M508.624 42.976C508.624 40.0069 506.221 37.6 503.256 37.6C500.291 37.6 497.888 40.0069 497.888 42.976V117.024C497.888 119.993 500.291 122.4 503.256 122.4C506.221 122.4 508.624 119.993 508.624 117.024V42.976Z" fill="black"/>
<path d="M528.496 37.376C528.496 34.4069 526.093 32 523.128 32C520.163 32 517.76 34.4069 517.76 37.376V122.624C517.76 125.593 520.163 128 523.128 128C526.093 128 528.496 125.593 528.496 122.624V37.376Z" fill="black"/>
<path d="M548.368 48.576C548.368 45.6069 545.965 43.2 543 43.2C540.035 43.2 537.632 45.6069 537.632 48.576V111.424C537.632 114.393 540.035 116.8 543 116.8C545.965 116.8 548.368 114.393 548.368 111.424V48.576Z" fill="black"/>
<path d="M568.24 59.776C568.24 56.8069 565.837 54.4 562.872 54.4C559.907 54.4 557.504 56.8069 557.504 59.776V100.224C557.504 103.193 559.907 105.6 562.872 105.6C565.837 105.6 568.24 103.193 568.24 100.224V59.776Z" fill="black"/>
<path d="M588.128 76.576C588.128 73.6069 585.725 71.2 582.76 71.2C579.795 71.2 577.392 73.6069 577.392 76.576V83.424C577.392 86.393 579.795 88.8 582.76 88.8C585.725 88.8 588.128 86.393 588.128 83.424V76.576Z" fill="black"/>
<path d="M608 76.576C608 73.6069 605.597 71.2 602.632 71.2C599.667 71.2 597.264 73.6069 597.264 76.576V83.424C597.264 86.393 599.667 88.8 602.632 88.8C605.597 88.8 608 86.393 608 83.424V76.576Z" fill="black"/>
<path d="M80 32C89.4935 32 98.7735 34.8156 106.667 40.0898C114.561 45.3641 120.714 52.8601 124.347 61.6309C127.98 70.4017 128.93 80.0532 127.078 89.3643C125.226 98.6753 120.654 107.228 113.941 113.941C107.228 120.654 98.6753 125.226 89.3643 127.078C80.0532 128.93 70.4017 127.98 61.6309 124.347C52.8601 120.714 45.3641 114.561 40.0898 106.667C34.8156 98.7735 32 89.4935 32 80C32 67.2696 37.0568 55.0603 46.0586 46.0586C55.0603 37.0568 67.2696 32 80 32ZM72.1895 61.0078C71.2222 61.0811 70.2972 61.4331 69.5293 62.0215C67.9302 63.2112 67.2397 64.9634 66.8613 66.9014C66.494 68.7791 66.3537 71.2244 66.1797 74.2012L66.1709 74.3545C66.0659 76.1363 66 77.899 66 79.4971C66 81.0952 66.0659 82.8608 66.1709 84.6426L66.1797 84.793C66.3537 87.7698 66.494 90.2149 66.8613 92.0898C67.2397 94.0304 67.9305 95.7793 69.5293 96.9717C70.3192 97.561 71.2062 97.9123 72.1895 97.9863C73.134 98.0549 74.0397 97.8572 74.8848 97.5557C76.4425 97.0019 78.2603 95.9027 80.3262 94.6582L80.5078 94.5488C81.6842 93.8362 82.8391 93.1046 83.8691 92.3838C85.1307 91.493 86.361 90.5583 87.5566 89.582L87.6943 89.4697C89.8044 87.762 91.5947 86.3112 92.832 84.8857C94.1797 83.3234 95 81.646 95 79.4971C95 77.348 94.1797 75.6672 92.8291 74.1074C91.5945 72.6821 89.8045 71.2294 87.6973 69.5244L87.5596 69.4121C86.3057 68.3979 85.0457 67.4272 83.8691 66.6104C82.7721 65.8537 81.6508 65.1348 80.5078 64.4482L80.3262 64.3379C78.2603 63.0906 76.4425 61.9912 74.8848 61.4375C74.0262 61.11 73.1082 60.9641 72.1895 61.0078Z" fill="black"/>
</svg>
